<?xml version="1.0" standalone="no"?>
<!DOCTYPE svg PUBLIC "-//W3C//DTD SVG 20010904//EN"
 "http://www.w3.org/TR/2001/REC-SVG-20010904/DTD/svg10.dtd">
<svg version="1.0" xmlns="http://www.w3.org/2000/svg"
 width="512.000000pt" height="512.000000pt" viewBox="0 0 512.000000 512.000000"
 preserveAspectRatio="xMidYMid meet">

<g transform="translate(0.000000,512.000000) scale(0.100000,-0.100000)"
fill="#ffff00" stroke="none">
<path d="M3593 5106 c-23 -7 -62 -25 -85 -39 -24 -14 -559 -542 -1189 -1174
-926 -927 -1151 -1158 -1170 -1198 -34 -71 -34 -199 0 -270 35 -74 2322 -2361
2396 -2396 41 -19 66 -24 135 -24 73 0 93 4 142 28 65 32 121 90 152 156 31
68 30 198 -3 266 -19 40 -225 252 -1050 1077 l-1026 1028 1026 1027 c1148
1150 1074 1067 1073 1213 0 55 -6 88 -23 126 -27 63 -101 136 -163 164 -61 27
-160 34 -215 16z"/>
</g>
</svg>
