<?xml version="1.0" standalone="no"?>
<!DOCTYPE svg PUBLIC "-//W3C//DTD SVG 20010904//EN"
 "http://www.w3.org/TR/2001/REC-SVG-20010904/DTD/svg10.dtd">
<svg version="1.0" xmlns="http://www.w3.org/2000/svg"
 width="512.000000pt" height="512.000000pt" viewBox="0 0 512.000000 512.000000"
 preserveAspectRatio="xMidYMid meet">

<g transform="translate(0.000000,512.000000) scale(0.100000,-0.100000)"
fill="#716f6f" stroke="none">
<path d="M890 5109 c-27 -8 -130 -106 -452 -427 -446 -446 -444 -444 -431
-530 5 -33 84 -116 782 -814 l776 -778 -776 -777 c-698 -699 -777 -782 -782
-815 -13 -86 -15 -84 431 -530 453 -453 448 -448 536 -428 35 8 132 101 813
782 l773 773 773 -773 c681 -681 778 -774 813 -782 88 -20 83 -25 536 428 453
453 448 448 428 536 -8 35 -101 132 -782 813 l-773 773 773 773 c681 681 774
778 782 813 20 88 25 83 -428 536 -453 453 -448 448 -536 428 -35 -8 -132
-101 -813 -782 l-773 -773 -778 778 c-500 500 -785 777 -797 777 -11 0 -29 2
-40 4 -11 3 -36 0 -55 -5z"/>
</g>
</svg>
